<?xml version="1.0" encoding="UTF-8"?>
<svg xmlns="http://www.w3.org/2000/svg" xmlns:xlink="http://www.w3.org/1999/xlink" width="512px" height="512px" viewBox="0 0 512 512" version="1.1">
<g id="surface1">
<path style=" stroke:none;fill-rule:nonzero;fill:rgb(80.000001%,14.117648%,11.372549%);fill-opacity:1;" d="M 107.519531 64 C 91.921875 64 79.28125 76.640625 79.28125 92.238281 L 79.28125 421.359375 L 337.601562 421.359375 L 355.28125 394.71875 L 355.28125 64 Z M 107.519531 64 "/>
<path style=" stroke:none;fill-rule:nonzero;fill:rgb(98.431373%,28.627452%,20.392157%);fill-opacity:1;" d="M 130.640625 64 L 107.519531 64 C 91.921875 64 79.28125 76.640625 79.28125 92.238281 L 79.28125 421.359375 L 130.640625 421.359375 Z M 130.640625 64 "/>
<path style=" stroke:none;fill-rule:nonzero;fill:rgb(27.058825%,52.156866%,53.333336%);fill-opacity:1;" d="M 105.839844 394.800781 C 89.441406 394.800781 76.640625 409.519531 79.679688 426.320312 C 81.921875 439.199219 94.078125 448 107.199219 448 C 187.199219 448 275.199219 448 355.199219 448 C 349.601562 430.71875 349.601562 412.078125 355.199219 394.800781 C 274.71875 394.800781 186.320312 394.800781 105.839844 394.800781 Z M 105.839844 394.800781 "/>
<path style=" stroke:none;fill-rule:nonzero;fill:rgb(98.039216%,74.117649%,18.431373%);fill-opacity:1;" d="M 303.039062 256.238281 L 289.039062 270.238281 L 397.121094 393.039062 C 404.878906 401.921875 418.480469 402.320312 426.800781 394 C 435.121094 385.679688 434.640625 372.078125 425.839844 364.320312 Z M 303.039062 256.238281 "/>
<path style=" stroke:none;fill-rule:nonzero;fill:rgb(99.607843%,50.196081%,9.803922%);fill-opacity:1;" d="M 282.625 258.300781 L 291.050781 249.871094 L 300.214844 259.035156 L 291.789062 267.464844 Z M 282.625 258.300781 "/>
<path style=" stroke:none;fill-rule:nonzero;fill:rgb(98.039216%,74.117649%,18.431373%);fill-opacity:1;" d="M 217.648438 250.546875 L 283.378906 184.8125 L 322.75 224.183594 L 257.019531 289.917969 Z M 217.648438 250.546875 "/>
<path style=" stroke:none;fill-rule:nonzero;fill:rgb(99.607843%,50.196081%,9.803922%);fill-opacity:1;" d="M 206.558594 250.640625 C 203.441406 253.761719 203.441406 258.71875 206.558594 261.839844 L 245.761719 301.039062 C 248.878906 304.160156 253.839844 304.160156 256.960938 301.039062 C 260.078125 297.921875 260.078125 292.960938 256.960938 289.839844 L 217.761719 250.640625 C 214.640625 247.601562 209.679688 247.601562 206.558594 250.640625 Z M 206.558594 250.640625 "/>
<path style=" stroke:none;fill-rule:nonzero;fill:rgb(99.607843%,50.196081%,9.803922%);fill-opacity:1;" d="M 283.519531 173.761719 C 280.398438 176.878906 280.398438 181.839844 283.519531 184.960938 L 322.71875 224.160156 C 325.839844 227.28125 330.800781 227.28125 333.921875 224.160156 C 337.039062 221.039062 337.039062 216.078125 333.921875 212.960938 L 294.71875 173.761719 C 291.601562 170.640625 286.558594 170.640625 283.519531 173.761719 Z M 283.519531 173.761719 "/>
<path style=" stroke:none;fill-rule:nonzero;fill:rgb(98.431373%,94.509804%,78.039217%);fill-opacity:1;" d="M 275.441406 329.039062 L 178.71875 329.039062 C 169.921875 329.039062 162.71875 336.238281 162.71875 345.039062 L 162.71875 357.28125 L 291.441406 357.28125 L 291.441406 345.039062 C 291.441406 336.238281 284.320312 329.039062 275.441406 329.039062 Z M 275.441406 329.039062 "/>
</g>
</svg>
